<svg width="34" height="34" viewBox="0 0 34 34" fill="none" xmlns="http://www.w3.org/2000/svg">
<path d="M16.9703 0C8.0256 0 0.696917 6.88656 0 15.6366L9.1274 19.4039C9.9011 18.8756 10.8354 18.5671 11.8394 18.5671C11.9302 18.5671 12.0198 18.5694 12.1082 18.574L16.1675 12.7004C16.1675 12.6727 16.1675 12.6451 16.1675 12.6175C16.1675 9.08271 19.0483 6.2063 22.5899 6.2063C26.1303 6.2063 29.0111 9.08271 29.0111 12.6175C29.0111 16.1534 26.1303 19.0287 22.5899 19.0287C22.5398 19.0287 22.4921 19.0275 22.4433 19.0264L16.6539 23.1505C16.6574 23.2253 16.6597 23.3024 16.6597 23.3772C16.6597 26.0315 14.498 28.1908 11.8394 28.1908C9.50669 28.1908 7.55556 26.5276 7.11344 24.3257L0.586387 21.6323C2.60849 28.7686 9.17394 33.9989 16.9703 33.9989C26.3746 33.9989 34 26.3871 34 16.9983C34 7.61055 26.3746 0 16.9703 0Z" fill="white"/>
<path d="M10.672 25.796L8.58008 24.9338C8.95122 25.7039 9.59229 26.3484 10.444 26.703C12.2846 27.4684 14.4079 26.5971 15.1746 24.7577C15.5457 23.868 15.5481 22.8862 15.1804 21.9941C14.8128 21.1021 14.1182 20.4069 13.227 20.0351C12.3416 19.6679 11.3933 19.6817 10.5603 19.9948L12.7209 20.8869C14.0786 21.452 14.7209 23.0082 14.1542 24.3629C13.5888 25.7188 12.0286 26.3611 10.672 25.796Z" fill="white"/>
<path d="M19.3829 12.6102C19.3829 10.8388 20.8221 9.40234 22.5976 9.40234C24.3719 9.40234 25.8111 10.8388 25.8111 12.6102C25.8111 14.3828 24.3719 15.8193 22.5976 15.8193C20.8221 15.8193 19.3829 14.3828 19.3829 12.6102ZM26.8698 12.6183C26.8698 10.2622 24.9501 8.3457 22.5906 8.3457C20.2311 8.3457 18.3125 10.2622 18.3125 12.6183C18.3125 14.9744 20.2311 16.8897 22.5906 16.8897C24.9489 16.8897 26.8698 14.9744 26.8698 12.6183Z" fill="white"/>
</svg>
